<svg xmlns="http://www.w3.org/2000/svg" xmlns:xlink="http://www.w3.org/1999/xlink" viewBox="0 0 383.99 383.99"><defs><style>.cls-1{fill:url(#linear-gradient);}.cls-2{fill:#fff;}</style><linearGradient id="linear-gradient" x1="19.55" y1="362.62" x2="366.66" y2="19.17" gradientUnits="userSpaceOnUse"><stop offset="0" stop-color="#ef788c"/><stop offset="1" stop-color="#9378f9"/></linearGradient></defs><g id="Layer_2" data-name="Layer 2"><g id="Layer_1-2" data-name="Layer 1"><rect class="cls-1" width="383.99" height="383.99" rx="63.47"/><path class="cls-2" d="M254.55,196.08a35.27,35.27,0,0,1-6.37,10.69c-1.37-2.41-2.91-5-5.41-6.14-3.9-1.83-8.82.58-10.92,4.34s-2,8.38-1.11,12.6a40.31,40.31,0,0,0,3,8.94,12.21,12.21,0,0,1,1.52,4.44c.08,1.53-4.29,5.91-5.81,5.82a12.65,12.65,0,0,1-4.45-1.52,40.31,40.31,0,0,0-8.94-3c-4.21-.87-8.83-1-12.6,1.11s-6.17,7-4.33,10.91c1.17,2.51,3.72,4.05,6.13,5.42-3.26,2.6-6.73,5.06-10.69,6.37-10.29,3.39-20.08-4.5-20.7-15.06a18.24,18.24,0,0,1,6.89-15.17c4.21-3.28,9.71-4.54,15-4.53s10.59,1.21,15.78,2.4c-3.24-3.41-7.7-5.29-11.87-7.47-8.25-4.34-15.83-10.21-21.23-17.8s-8.42-16.76-7.66-25.93a1.09,1.09,0,0,1,0-.18H171c9.17-.76,18.43,2.33,25.93,7.66s13.47,13,17.8,21.23c2.18,4.17,4.07,8.63,7.47,11.87-1.18-5.2-2.38-10.45-2.39-15.78s1.25-10.83,4.52-15a18.21,18.21,0,0,1,15.17-6.89C250.05,176,258,185.79,254.55,196.08Z"/><path class="cls-2" d="M150.31,326.15a71.89,71.89,0,0,1-22.53-3.49c-24.69-8.15-44.82-29.25-53.84-56.43a97.37,97.37,0,0,1-4.59-39.5c1-10.78.79-21.52.61-32.88-.08-4.9-.15-9.79-.14-14.67l.31-99.87a8.25,8.25,0,0,1,8.25-8.23l96.58,0c5.12,0,10.25,0,15.37.1,11.36.12,23.1.24,34.47-.25,18.45-.8,40,.12,59.82,13,18.13,11.81,31.27,28,37,45.54,5.65,17.35,4.24,37.82-4,57.64-7.87,19-19.8,32.58-36.47,41.47a84.85,84.85,0,0,1-44,10,84.71,84.71,0,0,1-10.08,44c-9,16.62-22.63,28.5-41.63,36.33A93.49,93.49,0,0,1,150.31,326.15ZM86.65,87.82l-.41,118.75c0,5.74,0,11.48-.06,17.22,0,4.73-1.21,9.27-1,14.09.36,9.72,3,19.39,6.52,28.4,4.82,12.17,12.63,23.22,23.25,31,18.35,13.43,44,15.87,64.82,6.78s36.35-29.17,40.56-51.52c1.21-6.44,1.5-13.34-1.2-19.31-.89-2-2.09-3.81-2.47-5.93-.9-5.08,4.37-10.2,9.42-9.17a29.14,29.14,0,0,1,5.23,2.13,27.69,27.69,0,0,0,11,1.69c30.52-.28,59.18-24.19,64.93-54.17s-12-62.79-40.28-74.35c-16.29-6.65-34.42-6.63-52-6.5Z"/></g></g></svg>