<svg xmlns="http://www.w3.org/2000/svg" viewBox="0 0 604.98 225.13"><defs><style>.cls-1{fill:#9378f9;}.cls-2{fill:#ef788c;}</style></defs><g id="Layer_2" data-name="Layer 2"><g id="Layer_1-2" data-name="Layer 1"><path class="cls-1" d="M110.38,118.73a21.13,21.13,0,0,1-3.79,6.36,8.09,8.09,0,0,0-3.22-3.65c-2.32-1.09-5.24.34-6.49,2.58s-1.18,5-.66,7.49A23.75,23.75,0,0,0,98,136.83a7.48,7.48,0,0,1,.91,2.64c0,.91-2.56,3.51-3.46,3.46a7.33,7.33,0,0,1-2.65-.91,23.64,23.64,0,0,0-5.31-1.76c-2.51-.52-5.26-.6-7.5.66s-3.67,4.16-2.58,6.48c.7,1.5,2.22,2.41,3.65,3.23a20.93,20.93,0,0,1-6.35,3.78c-6.13,2-12-2.67-12.32-8.95a10.83,10.83,0,0,1,4.1-9,14.5,14.5,0,0,1,9-2.7,42.76,42.76,0,0,1,9.38,1.43c-1.93-2-4.58-3.15-7.06-4.45a35.66,35.66,0,0,1-12.63-10.58,23.61,23.61,0,0,1-4.55-15.42v-.11h.11a23.67,23.67,0,0,1,15.42,4.56,35.6,35.6,0,0,1,10.59,12.63c1.3,2.48,2.42,5.13,4.44,7.06a43.53,43.53,0,0,1-1.42-9.39,14.42,14.42,0,0,1,2.69-8.94,10.84,10.84,0,0,1,9-4.1C107.71,106.78,112.4,112.61,110.38,118.73Z"/><path class="cls-1" d="M48.38,196.09A42.9,42.9,0,0,1,35,194c-14.68-4.85-26.65-17.4-32-33.57A57.89,57.89,0,0,1,.23,137,186,186,0,0,0,.59,117.4c0-2.91-.09-5.82-.08-8.72l.18-59.4A4.91,4.91,0,0,1,5.6,44.39l57.44,0c3.05,0,6.1,0,9.14.06,6.76.07,13.74.14,20.5-.15,11-.48,23.78.07,35.58,7.75,10.79,7,18.6,16.65,22,27.09s2.53,22.49-2.35,34.28c-4.68,11.31-11.78,19.38-21.69,24.67A50.47,50.47,0,0,1,100,144a50.5,50.5,0,0,1-6,26.17c-5.37,9.88-13.46,16.95-24.77,21.61A55.65,55.65,0,0,1,48.38,196.09ZM10.49,54.2l-.16,54.51c0,2.84,0,5.69.08,8.54a200.28,200.28,0,0,1-.4,20.58,48,48,0,0,0,2.27,19.53c4.39,13.24,14,23.46,25.78,27.34,8.06,2.66,17.82,2,27.49-2,9.12-3.76,15.62-9.39,19.85-17.2a40.29,40.29,0,0,0,4.73-22.44,8,8,0,0,0-.45-2.31,5.61,5.61,0,0,0-.71-.92,4.91,4.91,0,0,1,6.93-6.93,7.59,7.59,0,0,0,.88.71,7.85,7.85,0,0,0,2.33.49,40.32,40.32,0,0,0,22.48-4.71c7.83-4.18,13.47-10.64,17.25-19.76h0c4-9.63,4.73-19.4,2.09-27.49-2.71-8.32-9.11-16.1-18-21.9-9.45-6.16-19.91-6.61-29.79-6.18-7,.31-14.14.23-21,.16-3,0-6-.06-9-.06Z"/><path class="cls-2" d="M202.45,225.12a3,3,0,0,1-3-3V3a3,3,0,0,1,6,0V222.12A3,3,0,0,1,202.45,225.12Z"/><path class="cls-1" d="M296.88,151.66h62.18v18.17H274.79V44.15h22.09Z"/><path class="cls-1" d="M368.38,203.86V187.17h12.27q5.73,0,8.67-2.37t5.4-9.08L396,172l-35-91.8h22.58l22.75,66.28.16,1.63,21.44-67.91h21.93l-36.82,99.33q-4.91,13.26-12.52,18.82t-20.37,5.56"/><path class="cls-1" d="M467.37,144.79l20.29-2q2.13,8.34,7.45,12.11t15,3.76q19,0,19-12.76a10.11,10.11,0,0,0-3.77-8.19q-3.75-3.1-12.76-4.58L498,130.23q-27-4.92-27-26.19,0-12.75,9.82-20t27.49-7.28q35.51,0,41.07,26.51l-19.63,2q-3.45-14.07-21.11-14.07T491.1,102.57a8.54,8.54,0,0,0,3.68,7.28q3.68,2.7,12,4.34l13.08,2.29q15.23,2.63,22.51,9.17t7.28,18.16q0,14.07-10.39,21.84t-29.54,7.78Q473.42,173.43,467.37,144.79Z"/><path class="cls-2" d="M577,169.83V144.3h28v25.53Z"/><path class="cls-1" d="M567.12,55.08a10.83,10.83,0,0,1,7.8,3.08,10.52,10.52,0,0,1,0,15,11.35,11.35,0,0,1-15.55,0,10.49,10.49,0,0,1,0-15A10.78,10.78,0,0,1,567.12,55.08Zm0,18.93a8.35,8.35,0,0,0,6.11-2.38,8.08,8.08,0,0,0,2.43-5.94,8.18,8.18,0,0,0-2.43-6,8.35,8.35,0,0,0-6.11-2.38,8.21,8.21,0,0,0-6.06,2.38,8,8,0,0,0-2.47,6,7.91,7.91,0,0,0,2.47,5.94A8.21,8.21,0,0,0,567.12,74Zm4.51-4.46a3.23,3.23,0,0,0,.48,1.56h-2.39a2.94,2.94,0,0,1-.39-1.56l-.08-1.3a1.77,1.77,0,0,0-.48-1.17,1.88,1.88,0,0,0-1.26-.35h-2.38v4.38h-2.25V60h4.94q4,0,4,2.9,0,2.17-2.64,2.73v.26a3.18,3.18,0,0,1,1.8.59A2.07,2.07,0,0,1,571.5,68Zm-4.16-4.63c1.33,0,2-.51,2-1.52s-.6-1.48-1.82-1.48h-2.51v3Z"/></g></g></svg>